{
    "asset" : {
        "generator" : "Khronos glTF Blender I/O v1.5.17",
        "version" : "2.0"
    },
    "scene" : 0,
    "scenes" : [
        {
            "name" : "Scene",
            "nodes" : [
                0
            ]
        }
    ],
    "nodes" : [
        {
            "mesh" : 0,
            "name" : "Suzanne.001"
        }
    ],
    "materials" : [
        {
            "doubleSided" : true,
            "name" : "Material",
            "pbrMetallicRoughness" : {
                "metallicFactor" : 0,
                "roughnessFactor" : 0.4000000059604645
            }
        }
    ],
    "meshes" : [
        {
            "name" : "Suzanne.001",
            "primitives" : [
                {
                    "attributes" : {
                        "POSITION" : 0,
                        "NORMAL" : 1,
                        "TEXCOORD_0" : 2
                    },
                    "indices" : 3,
                    "material" : 0
                }
            ]
        }
    ],
    "accessors" : [
        {
            "bufferView" : 0,
            "componentType" : 5126,
            "count" : 35258,
            "max" : [
                1.3287925720214844,
                1.0097441673278809,
                1.0751808881759644
            ],
            "min" : [
                -1.328792691230774,
                -0.4958578050136566,
                -0.9259060025215149
            ],
            "type" : "VEC3"
        },
        {
            "bufferView" : 1,
            "componentType" : 5126,
            "count" : 35258,
            "type" : "VEC3"
        },
        {
            "bufferView" : 2,
            "componentType" : 5126,
            "count" : 35258,
            "type" : "VEC2"
        },
        {
            "bufferView" : 3,
            "componentType" : 5123,
            "count" : 188928,
            "type" : "SCALAR"
        }
    ],
    "bufferViews" : [
        {
            "buffer" : 0,
            "byteLength" : 423096,
            "byteOffset" : 0
        },
        {
            "buffer" : 0,
            "byteLength" : 423096,
            "byteOffset" : 423096
        },
        {
            "buffer" : 0,
            "byteLength" : 282064,
            "byteOffset" : 846192
        },
        {
            "buffer" : 0,
            "byteLength" : 377856,
            "byteOffset" : 1128256
        }
    ],
    "buffers" : [
        {
            "byteLength" : 1506112,
            "uri" : "data:application/octet-stream;base64,"
        }
    ]
}
